:SAMPLES-PER-SECOND 30
:FULLY-SPECIFIED
:DEGREES
133
root  -65.6576 41.2222 -10.1753 154.34 -86.7703 -158.572
RightUpLeg  -3.79361 -7.43773 -1.99929
RightLeg  7.3317 -6.25171 4.05292
RightFoot  2.99682 0.733159 -5.65832
RightToes  1.74622e-010 0 -3.6325e-017
Spine  5.66218 -0.633006 7.22679
Spine1  8.68257 -0.37528 0.0234956
HEad  -14.6937 4.25809 -3.94224
LeftShoulder1  7.45515 -10.7317 -45.645
LeftArm  -8.17519 20.6504 -24.738
LeftForeArm  28.5537 -19.5549 -3.49997
LeftHand  -0.244104 0.0205437 5.32207
RightShoulder  5.96454 9.61959 39.3458
RightArm  -5.67789 -8.6376 31.5391
RightForeArm  0.841016 28.7257 6.17979
RightHand  -1.13583 2.75176 -16.3258
LeftUpLeg  -6.87853 10.9422 4.40822
LeftLeg  12.116 5.79314 0.396814
LeftFoot  0.0560678 -0.116816 1.16392
LeftToes  -6.36679e-011 4.33698e-011 -8.22343e-012
134
root  -66.0768 41.3114 -10.1552 156.95 -87.1676 -160.992
RightUpLeg  -2.96765 -7.47714 -2.34925
RightLeg  6.70675 -6.38282 3.88655
RightFoot  2.77448 0.675156 -5.29382
RightToes  1.74622e-010 0 -3.6325e-017
Spine  5.05786 -0.357881 5.68112
Spine1  8.49828 -0.403168 1.0037
HEad  -13.9842 3.88346 -3.18317
LeftShoulder1  6.6576 -9.98473 -42.8815
LeftArm  -11.2513 20.2847 -23.1651
LeftForeArm  29.2439 -16.3961 -3.61008
LeftHand  -0.244104 0.0205437 5.32207
RightShoulder  5.57513 9.27084 37.611
RightArm  -8.79197 -8.87337 29.0848
RightForeArm  -0.785016 25.7462 5.54928
RightHand  -1.1105 2.72871 -16.0156
LeftUpLeg  -5.7535 10.089 4.42063
LeftLeg  10.8756 6.34898 -0.122413
LeftFoot  -0.328224 -0.0398186 0.437612
LeftToes  -6.36679e-011 4.33698e-011 -8.22343e-012
135
root  -66.4998 41.4266 -10.0907 163.536 -87.0354 -167.339
RightUpLeg  -1.95722 -7.41337 -2.73405
RightLeg  5.46282 -5.98531 3.85427
RightFoot  2.83069 0.615024 -4.78589
RightToes  1.74622e-010 0 -3.6325e-017
Spine  4.11684 -0.010454 5.25803
Spine1  8.61215 0.0591932 0.374331
HEad  -13.0456 3.41495 -2.54755
LeftShoulder1  5.70716 -8.90452 -39.7304
LeftArm  -14.0257 20.0459 -20.5813
LeftForeArm  27.0002 -15.0145 -3.31719
LeftHand  -0.244104 0.0205437 5.32207
RightShoulder  5.00494 8.60836 35.3498
RightArm  -10.6836 -9.04702 25.7841
RightForeArm  -3.58605 22.0026 5.08761
RightHand  -1.1391 2.8666 -16.1545
LeftUpLeg  -4.11794 8.52108 4.6022
LeftLeg  8.55457 8.09096 -1.26697
LeftFoot  0.124009 -0.0352428 0.340309
LeftToes  -6.36679e-011 4.33698e-011 -8.22343e-012
136
root  -66.9017 41.5209 -9.99707 170.885 -86.8318 -174.215
RightUpLeg  -1.25453 -7.32285 -3.1769
RightLeg  4.29748 -5.56315 3.75618
RightFoot  2.60733 0.494832 -3.89255
RightToes  1.74622e-010 0 -3.6325e-017
Spine  3.05729 0.272741 5.08843
Spine1  8.41144 0.481388 -0.398255
HEad  -11.8044 3.0342 -2.53358
LeftShoulder1  4.879 -7.82664 -36.9364
LeftArm  -15.6094 19.909 -16.7806
LeftForeArm  24.1984 -14.8215 -2.98299
LeftHand  -0.244104 0.0205437 5.32207
RightShoulder  4.27062 7.65216 32.3215
RightArm  -13.2543 -8.9986 21.8365
RightForeArm  -4.74098 17.3937 5.26393
RightHand  -1.13816 2.89803 -16.0805
LeftUpLeg  -2.82909 7.18548 4.56014
LeftLeg  6.44095 9.83038 -2.43732
LeftFoot  0.575075 -0.0776283 0.713262
LeftToes  -6.36679e-011 4.33698e-011 -8.22343e-012
137
root  -67.2503 41.5747 -9.91468 178.639 -87.098 178.74
RightUpLeg  -1.14282 -7.34762 -3.67442
RightLeg  3.75574 -5.61612 3.57012
RightFoot  2.13426 0.360041 -2.92232
RightToes  1.74622e-010 0 -3.6325e-017
Spine  2.30882 0.42734 4.45786
Spine1  7.39322 0.585253 -0.374979
HEad  -10.5638 2.63834 -2.75229
LeftShoulder1  4.24608 -7.03051 -34.1951
LeftArm  -16.5999 19.8396 -12.5226
LeftForeArm  22.8543 -15.039 -2.68907
LeftHand  -0.244104 0.0205437 5.32207
RightShoulder  3.48595 6.57522 28.5964
RightArm  -17.1576 -9.2839 17.7923
RightForeArm  -3.71866 12.8392 5.18427
RightHand  -1.07117 2.81888 -15.2991
LeftUpLeg  -2.29502 6.45672 4.23633
LeftLeg  5.00645 10.4349 -3.27627
LeftFoot  0.437041 -0.0881529 0.814908
LeftToes  -6.36679e-011 4.33698e-011 -8.22343e-012
138
root  -67.5451 41.6095 -9.84514 -175.013 -87.5571 173.056
RightUpLeg  -1.22993 -7.41599 -4.03138
RightLeg  3.56066 -5.91293 3.44484
RightFoot  1.78384 0.285221 -2.37317
RightToes  1.74622e-010 0 -3.6325e-017
Spine  1.85705 0.376294 4.09355
Spine1  6.39628 0.637309 -0.913891
HEad  -9.85119 2.45588 -2.35106
LeftShoulder1  3.4106 -5.93385 -30.0119
LeftArm  -17.8416 19.3662 -9.39987
LeftForeArm  22.2374 -15.455 -2.43688
LeftHand  -0.244104 0.0205437 5.32207
RightShoulder  2.8765 5.5445 25.7145
RightArm  -20.4894 -9.37739 13.4784
RightForeArm  -4.04963 9.19023 4.31862
RightHand  -1.03599 2.87665 -14.7121
LeftUpLeg  -2.07018 5.94705 3.94038
LeftLeg  3.90596 10.378 -3.79671
LeftFoot  0.255833 -0.084948 0.740815
LeftToes  -6.36679e-011 4.33698e-011 -8.22343e-012
139
root  -67.8008 41.6459 -9.7729 -172.789 -87.7446 171.27
RightUpLeg  -1.10666 -7.38693 -4.18318
RightLeg  3.2288 -6.05187 3.40007
RightFoot  1.62832 0.262772 -2.21272
RightToes  1.74622e-010 0 -3.6325e-017
Spine  1.63213 0.375879 4.27836
Spine1  5.63493 0.859787 -1.98979
HEad  -9.41077 2.48291 -1.83164
LeftShoulder1  2.70984 -4.9442 -25.8822
LeftArm  -19.1463 18.5556 -6.60437
LeftForeArm  20.8015 -15.972 -2.3173
LeftHand  -0.244104 0.0205437 5.32207
RightShoulder  2.36105 4.53029 23.1513
RightArm  -22.2878 -9.28415 9.32616
RightForeArm  -7.97536 6.6931 3.54166
RightHand  -1.10829 3.04596 -15.3986
LeftUpLeg  -1.67303 5.58701 3.75873
LeftLeg  2.85906 10.416 -4.04775
LeftFoot  0.388871 -0.0872806 0.77048
LeftToes  -6.36679e-011 4.33698e-011 -8.22343e-012
140
root  -68.0184 41.6748 -9.70325 -171.508 -87.7469 170.341
RightUpLeg  -0.951371 -7.29331 -4.28729
RightLeg  2.86369 -6.09596 3.32361
RightFoot  1.45819 0.237311 -2.0253
RightToes  1.74622e-010 0 -3.6325e-017
Spine  1.49157 0.41553 4.35549
Spine1  5.04994 0.996398 -2.56411
HEad  -9.2463 2.73383 -1.76394
LeftShoulder1  2.3045 -4.28729 -23.2293
LeftArm  -20.4304 17.5808 -3.34109
LeftForeArm  19.4387 -16.6421 -2.2947
LeftHand  -0.244104 0.0205437 5.32207
RightShoulder  1.80348 3.35136 19.8974
RightArm  -22.8573 -8.83124 6.13817
RightForeArm  -13.5901 5.30328 3.40799
RightHand  -1.2427 3.2882 -16.7656
LeftUpLeg  -1.27853 5.40986 3.536
LeftLeg  2.01188 10.5876 -4.09886
LeftFoot  0.473205 -0.0866004 0.767664
LeftToes  -6.36679e-011 4.33698e-011 -8.22343e-012
141
root  -68.1941 41.6855 -9.64804 -167.297 -87.8912 166.529
RightUpLeg  -1.00738 -7.26956 -4.45572
RightLeg  2.74188 -6.24554 3.21977
RightFoot  1.20119 0.192855 -1.67915
RightToes  1.74622e-010 0 -3.6325e-017
Spine  1.53805 0.227411 4.2091
Spine1  4.22173 0.884754 -3.03932
HEad  -9.23616 3.19274 -1.52433
LeftShoulder1  1.91232 -3.5586 -20.5595
LeftArm  -21.5958 16.707 -0.715827
LeftForeArm  19.4219 -17.3643 -2.32079
LeftHand  -0.244104 0.0205437 5.32207
RightShoulder  1.37317 2.29811 17.0273
RightArm  -23.3755 -8.09624 3.61455
RightForeArm  -16.9838 5.01862 3.40911
RightHand  -1.28216 3.32455 -17.2106
LeftUpLeg  -1.21284 5.19777 3.2629
LeftLeg  1.541 10.6664 -4.12548
LeftFoot  0.329153 -0.0815384 0.707738
LeftToes  -6.36679e-011 4.33698e-011 -8.22343e-012
142
root  -68.335 41.6845 -9.60446 -162.409 -88.1973 161.973
RightUpLeg  -1.07979 -7.34816 -4.63097
RightLeg  2.74845 -6.44668 3.20956
RightFoot  0.941169 0.153407 -1.36548
RightToes  1.74622e-010 0 -3.6325e-017
Spine  1.72519 -0.0905886 3.93131
Spine1  3.40263 0.60096 -3.30545
HEad  -9.1544 3.65368 -1.19374
LeftShoulder1  1.5488 -2.77274 -17.9732
LeftArm  -21.6406 15.4258 1.04882
LeftForeArm  18.3187 -17.2478 -2.36999
LeftHand  -0.244104 0.0205437 5.32207
RightShoulder  1.03076 1.34397 14.4195
RightArm  -25.6711 -7.3558 2.13583
RightForeArm  -15.9163 5.71628 2.87427
RightHand  -1.15908 2.8646 -16.4259
LeftUpLeg  -1.38816 5.0996 3.08808
LeftLeg  1.49726 10.4311 -4.17991
LeftFoot  0.17257 -0.0869891 0.81885
LeftToes  -6.36679e-011 4.33698e-011 -8.22343e-012
143
root  -68.4534 41.6805 -9.56752 -160.628 -88.4879 160.341
RightUpLeg  -0.948157 -7.45188 -4.72528
RightLeg  2.68553 -6.58827 3.29821
RightFoot  0.701943 0.128402 -1.1713
RightToes  1.74622e-010 0 -3.6325e-017
Spine  2.07571 -0.348524 3.89749
Spine1  2.54838 0.429563 -3.81203
HEad  -8.69717 3.86422 -0.755932
LeftShoulder1  1.29903 -2.35397 -15.2754
LeftArm  -20.4727 13.761 1.89079
LeftForeArm  15.1209 -15.7057 -2.3398
LeftHand  -0.244104 0.0205437 5.32207
RightShoulder  0.820061 0.717095 12.385
RightArm  -28.7414 -6.97748 1.26879
RightForeArm  -12.4537 6.93627 2.09091
RightHand  -1.04913 2.55543 -15.4759
LeftUpLeg  -1.55475 5.14301 3.07151
LeftLeg  1.81084 10.1227 -4.1897
LeftFoot  0.0168841 -0.100218 1.05517
LeftToes  -6.36679e-011 4.33698e-011 -8.22343e-012
144
root  -68.5593 41.6799 -9.54338 -160.943 -88.6467 160.72
RightUpLeg  -0.743118 -7.5083 -4.75981
RightLeg  2.57249 -6.66778 3.36527
RightFoot  0.493414 0.109981 -1.02812
RightToes  1.74622e-010 0 -3.6325e-017
Spine  2.35071 -0.469316 3.71528
Spine1  1.88068 0.334629 -4.01832
HEad  -8.14732 3.78579 -0.371015
LeftShoulder1  1.18636 -2.36043 -13.1464
LeftArm  -20.1509 11.9184 2.5278
LeftForeArm  14.0681 -13.5506 -2.07891
LeftHand  -0.244104 0.0205437 5.32207
RightShoulder  0.683943 0.331287 10.6198
RightArm  -30.7226 -6.58477 0.789319
RightForeArm  -9.39365 7.99969 1.64207
RightHand  -1.07992 2.97925 -15.1381
LeftUpLeg  -1.59775 5.18623 3.09235
LeftLeg  2.10857 9.97051 -4.14323
LeftFoot  -0.223326 -0.104263 1.14968
LeftToes  -6.36679e-011 4.33698e-011 -8.22343e-012
145
root  -68.6631 41.6825 -9.5324 -161.92 -88.6185 161.824
RightUpLeg  -0.693062 -7.49804 -4.75832
RightLeg  2.54094 -6.64374 3.35193
RightFoot  0.33089 0.0963259 -0.919912
RightToes  1.74622e-010 0 -3.6325e-017
Spine  2.44288 -0.536801 3.24554
Spine1  1.33193 0.218678 -3.85714
HEad  -7.68198 3.61033 0.116544
LeftShoulder1  1.09563 -2.39095 -11.3195
LeftArm  -19.985 10.2826 2.64668
LeftForeArm  13.2939 -11.237 -1.8742
LeftHand  -0.244104 0.0205437 5.32207
RightShoulder  0.614628 0.192009 9.27252
RightArm  -31.3091 -5.77445 0.399288
RightForeArm  -7.66206 8.45032 1.56166
RightHand  -1.13795 3.39446 -15.2071
LeftUpLeg  -1.58085 5.16788 3.08397
LeftLeg  2.16723 10.0042 -4.09966
LeftFoot  -0.471106 -0.0980403 1.08219
LeftToes  -6.36679e-011 4.33698e-011 -8.22343e-012
146
root  -68.769 41.6846 -9.52434 -165.269 -88.4018 165.358
RightUpLeg  -0.759656 -7.43725 -4.71341
RightLeg  2.5404 -6.45487 3.32157
RightFoot  0.215423 0.0898307 -0.872756
RightToes  1.74622e-010 0 -3.6325e-017
Spine  2.29154 -0.618436 2.63881
Spine1  1.08806 0.0408191 -3.43623
HEad  -7.36692 3.70077 0.366729
LeftShoulder1  0.955694 -2.03971 -9.83594
LeftArm  -19.824 8.80507 2.29224
LeftForeArm  12.6078 -9.3402 -1.83342
LeftHand  -0.244104 0.0205437 5.32207
RightShoulder  0.578206 0.155724 8.34377
RightArm  -30.2958 -4.16236 -0.0475875
RightForeArm  -8.3172 7.86376 1.88674
RightHand  -1.15094 3.13883 -15.8231
LeftUpLeg  -1.55343 5.15047 3.08938
LeftLeg  2.09143 10.206 -4.07617
LeftFoot  -0.614077 -0.0929034 1.02657
LeftToes  -6.36679e-011 4.33698e-011 -8.22343e-012
147
root  -68.8659 41.6855 -9.51589 -169.129 -88.0987 169.404
RightUpLeg  -0.811551 -7.36206 -4.65451
RightLeg  2.4656 -6.19066 3.32053
RightFoot  0.131988 0.0856219 -0.842928
RightToes  1.74622e-010 0 -3.6325e-017
Spine  2.05318 -0.667916 2.175
Spine1  0.994192 -0.085385 -3.09976
HEad  -7.12217 4.03636 0.176217
LeftShoulder1  0.86119 -1.74968 -8.89051
LeftArm  -19.5699 7.49767 1.97193
LeftForeArm  12.3396 -7.86443 -1.87557
LeftHand  -0.244104 0.0205437 5.32207
RightShoulder  0.568947 0.223697 7.74171
RightArm  -27.4616 -2.3621 -0.615684
RightForeArm  -11.4625 6.43128 2.69835
RightHand  -1.2049 2.80954 -17.1685
LeftUpLeg  -1.52239 5.15378 3.11282
LeftLeg  2.01701 10.5141 -4.04603
LeftFoot  -0.703793 -0.0893739 1.00591
LeftToes  -6.36679e-011 4.33698e-011 -8.22343e-012
